<?xml version="1.0" encoding="utf-8"?>
<svg version="1.1" xmlns:xlink="http://www.w3.org/1999/xlink" width="41px" height="34px" xmlns="http://www.w3.org/2000/svg">
  <g transform="matrix(1 0 0 1 -144 -1319 )">
    <path d="M 144 1319  L 185 1319  L 185 1353  L 144 1353  L 144 1319  " fill-rule="nonzero" fill="#cccccc" stroke="none" />
    <path d="M 146 1321  L 183 1321  L 183 1351  L 146 1351  L 146 1321  " fill-rule="nonzero" fill="#ffffff" stroke="none" />
    <path d="M 167.87 1329.2  C 166.442 1329.2  165.32 1328.078  165.32 1326.65  C 165.32 1325.222  166.442 1324.1  167.87 1324.1  C 169.298 1324.1  170.42 1325.222  170.42 1326.65  C 170.42 1328.078  169.298 1329.2  167.87 1329.2  " fill-rule="nonzero" fill="#cccccc" stroke="none" />
    <path d="M 147 1350  L 147 1334.6  L 155.75 1327.6  L 168 1336.06829268293  L 175 1331.8  L 182 1336.06829268293  L 182 1350  L 147 1350  " fill-rule="nonzero" fill="#169bd5" stroke="none" />
  </g>
</svg>