<?xml version="1.0" encoding="utf-8"?>
<svg version="1.1" xmlns:xlink="http://www.w3.org/1999/xlink" width="9px" height="9px" xmlns="http://www.w3.org/2000/svg">
  <g transform="matrix(1 0 0 1 -160 -1332 )">
    <path d="M 8.82102272727273 3.45170454545455  C 8.94034090909091 3.57102272727273  9 3.71590909090909  9 3.88636363636364  L 9 5.11363636363636  C 9 5.28409090909091  8.94034090909091 5.42897727272727  8.82102272727273 5.54829545454545  C 8.70170454545455 5.66761363636364  8.55681818181818 5.72727272727273  8.38636363636364 5.72727272727273  L 5.72727272727273 5.72727272727273  L 5.72727272727273 8.38636363636364  C 5.72727272727273 8.55681818181818  5.66761363636364 8.70170454545455  5.54829545454545 8.82102272727273  C 5.42897727272727 8.94034090909091  5.28409090909091 9  5.11363636363636 9  L 3.88636363636364 9  C 3.71590909090909 9  3.57102272727273 8.94034090909091  3.45170454545455 8.82102272727273  C 3.33238636363636 8.70170454545455  3.27272727272727 8.55681818181818  3.27272727272727 8.38636363636364  L 3.27272727272727 5.72727272727273  L 0.613636363636364 5.72727272727273  C 0.443181818181818 5.72727272727273  0.298295454545455 5.66761363636364  0.178977272727273 5.54829545454545  C 0.0596590909090909 5.42897727272727  0 5.28409090909091  0 5.11363636363636  L 0 3.88636363636364  C 0 3.71590909090909  0.0596590909090909 3.57102272727273  0.178977272727273 3.45170454545455  C 0.298295454545455 3.33238636363636  0.443181818181818 3.27272727272727  0.613636363636364 3.27272727272727  L 3.27272727272727 3.27272727272727  L 3.27272727272727 0.613636363636364  C 3.27272727272727 0.443181818181818  3.33238636363636 0.298295454545454  3.45170454545455 0.178977272727273  C 3.57102272727273 0.0596590909090906  3.71590909090909 0  3.88636363636364 0  L 5.11363636363636 0  C 5.28409090909091 0  5.42897727272727 0.0596590909090906  5.54829545454545 0.178977272727273  C 5.66761363636364 0.298295454545454  5.72727272727273 0.443181818181818  5.72727272727273 0.613636363636364  L 5.72727272727273 3.27272727272727  L 8.38636363636364 3.27272727272727  C 8.55681818181818 3.27272727272727  8.70170454545455 3.33238636363636  8.82102272727273 3.45170454545455  Z " fill-rule="nonzero" fill="#000000" stroke="none" transform="matrix(1 0 0 1 160 1332 )" />
  </g>
</svg>